<?xml version="1.0" standalone="no"?>
<!DOCTYPE svg PUBLIC "-//W3C//DTD SVG 20010904//EN"
 "http://www.w3.org/TR/2001/REC-SVG-20010904/DTD/svg10.dtd">
<svg version="1.0" xmlns="http://www.w3.org/2000/svg"
 width="300.000000pt" height="197.000000pt" viewBox="0 0 300.000000 197.000000"
 preserveAspectRatio="xMidYMid meet">
<metadata>
Created by potrace 1.10, written by Peter Selinger 2001-2011
</metadata>
<g transform="translate(0.000000,197.000000) scale(0.100000,-0.100000)"
fill="#000000" stroke="none">
<path d="M2139 1770 c-88 -91 -144 -236 -137 -354 8 -117 47 -184 204 -346 72
-74 155 -164 184 -200 93 -115 143 -248 125 -331 l-7 -32 -22 44 c-26 52 -49
92 -57 99 -3 3 -22 29 -42 58 -21 28 -52 74 -71 101 -47 67 -73 120 -81 166
-8 42 -30 75 -50 75 -34 0 -102 -106 -123 -191 -25 -103 9 -173 158 -328 116
-120 152 -183 154 -266 1 -61 20 -75 31 -25 19 84 -25 166 -169 319 -145 153
-168 202 -140 306 13 51 72 156 95 171 5 3 9 -15 9 -39 0 -58 48 -153 140
-277 163 -219 187 -344 94 -480 -28 -40 -32 -51 -18 -48 26 5 82 82 95 130 6
23 9 65 7 95 -2 29 0 53 4 53 16 0 30 77 25 136 -5 72 -46 167 -104 248 -21
28 -101 116 -178 196 -77 80 -155 167 -173 195 -39 59 -62 132 -62 196 0 97
67 249 146 329 19 20 34 39 34 43 0 19 -28 2 -71 -43z"/>
<path d="M2214 1774 c-8 -33 11 -119 41 -187 27 -61 105 -182 185 -287 134
-175 199 -293 225 -405 37 -153 4 -280 -99 -392 -30 -34 -35 -43 -20 -43 31 0
109 94 135 162 20 52 24 81 24 163 -1 176 -42 263 -279 589 -88 120 -110 157
-149 246 -21 46 -37 109 -37 142 0 37 -18 45 -26 12z"/>
<path d="M338 1302 c-28 -33 -29 -41 -3 -93 15 -28 41 -92 59 -142 18 -51 36
-100 41 -109 6 -14 2 -18 -15 -18 -63 0 -119 -89 -104 -165 7 -41 63 -94 99
-96 14 -1 31 -2 38 -3 16 -3 60 19 76 38 11 13 17 11 48 -10 46 -31 113 -33
155 -3 l29 21 23 -21 c24 -22 74 -28 105 -11 12 6 29 5 50 -3 25 -9 35 -9 49
1 32 23 43 24 61 8 20 -19 82 -21 99 -4 9 9 18 9 37 0 35 -16 55 -15 75 3 15
14 20 14 46 0 44 -23 149 -20 174 5 25 25 29 25 60 0 39 -31 109 -27 146 8 34
32 40 54 19 72 -18 15 -20 40 -2 40 7 0 22 -7 34 -15 19 -13 20 -19 11 -45
-15 -46 10 -80 60 -80 21 0 48 7 61 16 20 14 22 22 17 56 -6 35 -3 43 24 68
34 31 38 59 14 96 -15 23 -15 26 0 43 24 27 20 92 -8 134 -21 31 -22 37 -10
58 42 74 45 115 11 147 -21 20 -34 22 -144 22 -95 0 -123 -3 -133 -15 -7 -8
-18 -15 -25 -15 -7 0 -18 7 -25 15 -15 18 -120 21 -152 4 -14 -8 -23 -8 -31 0
-6 6 -39 11 -74 11 -50 0 -67 -4 -83 -20 -25 -25 -25 -54 -1 -88 10 -15 32
-65 50 -112 17 -47 40 -101 50 -121 l18 -35 -39 -12 c-28 -9 -44 -9 -58 -2
-11 6 -20 7 -20 3 0 -4 -5 -2 -10 3 -7 7 -8 19 -1 37 9 22 5 38 -24 94 -18 38
-38 79 -44 93 -61 148 -71 160 -131 160 -17 0 -40 -8 -51 -18 -16 -16 -62
-126 -86 -207 -3 -11 -14 -32 -25 -47 -24 -34 -23 -70 2 -93 26 -23 26 -39 0
-25 -28 15 -78 9 -97 -12 -19 -21 -22 -22 -47 -3 -17 13 -17 15 8 48 14 19 26
41 26 49 0 20 34 107 68 177 34 70 34 75 10 107 -20 24 -24 25 -92 20 -39 -2
-75 -5 -81 -5 -5 0 -80 2 -166 5 -139 3 -158 2 -171 -14z m152 -42 c0 -20 -5
-30 -15 -30 -20 0 -19 -4 8 -85 l24 -69 26 77 c24 72 25 77 7 77 -14 0 -18 6
-16 28 3 26 5 27 70 30 l66 3 0 -31 c0 -23 -4 -30 -20 -30 -19 0 -19 -1 -1
-43 10 -23 22 -58 26 -76 9 -42 14 -36 41 49 21 68 21 70 3 70 -14 0 -19 7
-19 30 l0 30 70 0 70 0 0 -30 c0 -18 -5 -30 -13 -30 -7 0 -30 -53 -55 -130
l-43 -130 -37 0 -37 0 -25 76 c-13 41 -27 77 -30 79 -3 2 -16 -32 -29 -76
l-24 -79 -36 0 -37 0 -43 123 c-24 67 -50 127 -57 133 -8 6 -14 23 -14 38 0
26 1 26 70 26 l70 0 0 -30z m644 -102 c29 -77 54 -128 62 -128 9 0 14 -11 14
-30 l0 -30 -65 0 -65 0 0 30 c0 22 4 28 15 24 17 -7 18 -3 9 20 -5 12 -20 16
-60 16 -47 0 -54 -2 -54 -20 0 -11 6 -19 13 -17 7 1 13 -10 15 -25 l3 -28 -65
0 -66 0 0 30 c0 19 5 30 14 30 8 0 28 42 51 108 21 59 42 117 47 130 7 20 14
23 45 20 l38 -3 49 -127z m266 102 c0 -21 -5 -30 -16 -30 -11 0 -14 -5 -9 -17
4 -10 16 -43 27 -73 11 -30 21 -56 23 -58 1 -2 12 23 23 55 11 32 23 66 27 76
5 12 2 17 -9 17 -11 0 -16 9 -16 30 l0 30 65 0 65 0 0 -30 c0 -17 -5 -30 -12
-30 -7 0 -34 -57 -59 -128 l-46 -127 -40 -3 -39 -3 -48 131 c-30 83 -53 130
-62 130 -9 0 -14 11 -14 30 l0 30 70 0 70 0 0 -30z m506 14 c-3 -9 -6 -33 -6
-55 0 -37 -2 -39 -30 -39 -25 0 -30 4 -30 25 0 22 -4 24 -36 22 -34 -2 -37 -5
-39 -34 l-3 -33 49 0 c48 0 49 -1 49 -30 0 -29 -1 -30 -48 -30 l-48 0 0 -35
c0 -35 1 -35 43 -35 38 0 43 2 40 23 -2 18 4 23 31 25 l32 3 0 -55 0 -56 -130
0 -130 0 0 30 c0 23 4 30 16 28 14 -3 17 11 18 100 1 91 -1 102 -16 102 -13 0
-18 8 -18 30 l0 30 131 0 c115 0 130 -2 125 -16z m-256 -143 c0 -45 -5 -74
-16 -90 -11 -16 -15 -35 -11 -62 5 -36 3 -39 -19 -39 -14 0 -42 -9 -64 -20
-48 -24 -47 -24 -60 -1 -8 16 -5 28 15 57 14 20 25 42 25 48 0 20 53 151 73
179 18 27 20 27 38 11 15 -13 19 -31 19 -83z m-1037 -158 c14 -26 13 -28 -26
-54 -44 -30 -51 -29 -68 3 -8 15 -8 19 0 14 11 -7 61 39 61 55 0 19 20 8 33
-18z m450 -27 c3 -12 -30 -32 -39 -24 -11 12 5 40 21 36 9 -2 17 -7 18 -12z
m-580 -47 c43 -23 49 -54 13 -61 -18 -4 -26 0 -29 14 -6 20 -37 24 -55 6 -7
-7 -12 -28 -12 -48 0 -56 34 -77 70 -45 19 17 50 10 50 -11 0 -21 -42 -44 -83
-44 -56 0 -87 35 -87 97 1 53 14 77 51 92 33 13 56 13 82 0z m245 -24 c52 -61
8 -165 -71 -165 -69 0 -111 64 -87 135 22 67 111 84 158 30z m178 -31 c19 -30
37 -54 40 -54 9 0 -8 75 -19 81 -21 14 1 32 41 33 34 1 42 -2 42 -16 0 -10 -4
-18 -10 -18 -6 0 -10 -33 -10 -80 0 -78 -1 -80 -24 -80 -19 0 -32 12 -58 55
-18 30 -36 55 -40 55 -4 0 -6 -16 -5 -35 1 -20 7 -35 15 -35 6 0 12 -9 12 -20
0 -17 -7 -20 -45 -20 -38 0 -45 3 -45 20 0 11 5 20 10 20 6 0 10 27 10 60 0
33 -4 60 -10 60 -5 0 -10 8 -10 18 0 15 6 17 36 14 31 -4 41 -12 70 -58z m257
0 c17 -29 34 -54 37 -54 3 0 4 18 2 40 -2 22 -8 40 -13 40 -5 0 -9 8 -9 18 0
14 9 17 45 17 37 0 45 -3 45 -17 0 -10 -4 -18 -10 -18 -6 0 -10 -33 -10 -80 0
-78 -1 -80 -24 -80 -18 0 -33 15 -65 63 l-41 62 0 -41 c0 -28 5 -44 15 -48 8
-3 15 -12 15 -21 0 -11 -12 -15 -50 -15 -38 0 -50 4 -50 15 0 9 7 18 15 21 22
9 21 112 -2 129 -24 18 -9 32 31 27 31 -4 41 -12 69 -58z m305 27 c3 -26 0
-31 -17 -31 -12 0 -21 7 -21 15 0 9 -9 15 -25 15 -18 0 -25 -5 -25 -20 0 -16
7 -20 30 -20 23 0 30 -4 30 -20 0 -16 -7 -20 -30 -20 -23 0 -30 -4 -30 -20 0
-15 7 -20 25 -20 16 0 25 6 25 15 0 8 9 15 20 15 16 0 20 -7 20 -35 l0 -35
-80 0 c-73 0 -80 2 -80 20 0 11 7 20 15 20 12 0 15 13 15 60 0 47 -3 60 -15
60 -14 0 -21 21 -11 31 2 2 37 3 78 3 l73 -2 3 -31z m185 28 c43 -23 49 -54
12 -61 -16 -4 -25 -1 -25 8 0 18 -38 28 -55 14 -18 -15 -20 -81 -3 -98 17 -17
45 -15 56 4 10 17 52 12 52 -7 0 -23 -42 -49 -80 -49 -59 0 -90 33 -90 98 0
26 6 55 13 64 29 36 80 48 120 27z m255 -19 c2 -12 1 -28 -2 -36 -6 -17 -36
-7 -36 12 0 8 -7 14 -15 14 -12 0 -15 -13 -15 -60 0 -33 4 -60 10 -60 6 0 10
-9 10 -20 0 -17 -7 -20 -45 -20 -38 0 -45 3 -45 20 0 11 5 20 10 20 6 0 10 27
10 60 0 47 -3 60 -15 60 -8 0 -15 -6 -15 -14 0 -13 -24 -29 -32 -21 -2 3 -2
19 0 37 l4 33 86 -2 c81 -1 87 -3 90 -23z"/>
<path d="M1036 1188 c-3 -7 -9 -28 -15 -45 -10 -33 -10 -33 24 -33 l34 0 -16
45 c-16 47 -21 53 -27 33z"/>
<path d="M631 857 c-11 -14 -15 -37 -13 -74 1 -15 10 -25 27 -29 34 -8 55 11
55 52 0 51 -42 82 -69 51z"/>
</g>
</svg>
